PathFileType	4	(X/Y/Z)	/Users/itak/Documents/Research/Walk-IL/dataset/trc/00322_00011.trc
DataRate	CameraRate	NumFrames	NumMarkers	Units	OrigDataRate	OrigDataStartFrame	OrigNumFrames
100.000000	100.000000	4	57	mm	100.000000	469	537
Frame#	Time	LPSI			L3			STRN			T10			C7			CLAV			RBAK			LBAK			LSHO			LUPA			LAEL			LAOL			LWTS			LWPS			LFRA			LHPS			RSHO			RUPA			RAEL			RAOL			RWTS			RWPS			RFRA			RIFD			RHTS			RHPS			RBHD			LFHD			RFHD			LBHD			LHIP			RASI			LASI			LKNE			LTHI			LANK			LTIP			LTOE			LMT1			LMT5			LHEE			RKNE			RANK			RTIP			RTOE			RMT1			RMT5			RHEE			RPSI			RTHI			RHIP			LHTS			LIFD			*53			*54			*55			*56			
		X1	Y1	Z1	X2	Y2	Z2	X3	Y3	Z3	X4	Y4	Z4	X5	Y5	Z5	X6	Y6	Z6	X7	Y7	Z7	X8	Y8	Z8	X9	Y9	Z9	X10	Y10	Z10	X11	Y11	Z11	X12	Y12	Z12	X13	Y13	Z13	X14	Y14	Z14	X15	Y15	Z15	X16	Y16	Z16	X17	Y17	Z17	X18	Y18	Z18	X19	Y19	Z19	X20	Y20	Z20	X21	Y21	Z21	X22	Y22	Z22	X23	Y23	Z23	X24	Y24	Z24	X25	Y25	Z25	X26	Y26	Z26	X27	Y27	Z27	X28	Y28	Z28	X29	Y29	Z29	X30	Y30	Z30	X31	Y31	Z31	X32	Y32	Z32	X33	Y33	Z33	X34	Y34	Z34	X35	Y35	Z35	X36	Y36	Z36	X37	Y37	Z37	X38	Y38	Z38	X39	Y39	Z39	X40	Y40	Z40	X41	Y41	Z41	X42	Y42	Z42	X43	Y43	Z43	X44	Y44	Z44	X45	Y45	Z45	X46	Y46	Z46	X47	Y47	Z47	X48	Y48	Z48	X49	Y49	Z49	X50	Y50	Z50	X51	Y51	Z51	X52	Y52	Z52	X53	Y53	Z53	X54	Y54	Z54	X55	Y55	Z55	X56	Y56	Z56	X57	Y57	Z57	

470	4.69	825.1845092773438	974.049560546875	10.94783210754395	830.1669921875	1024.742065429688	80.39725494384766	1043.326782226562	1220.230590820312	45.52168655395508	806.8916625976562	1143.122192382812	76.73204803466797	833.8908081054688	1393.848754882812	57.31393814086914	992.836181640625	1342.551147460938	47.91986083984375	799.7115478515625	1253.552856445312	129.1757965087891	815.4130249023438	1355.886352539062	-42.65713500976562	894.6524658203125	1375.953857421875	-105.891242980957	880.1055297851562	1254.777709960938	-172.4197998046875	920.3106079101562	1052.53271484375	-182.0045166015625	856.8178100585938	1033.4755859375	-128.0791473388672	1053.546875	831.9771728515625	-125.5998153686523	1018.230712890625	810.7349243164062	-181.0709075927734	950.9904174804688	950.76904296875	-185.0765533447266	1028.909912109375	741.6196899414062	-172.0063323974609	908.8499145507812	1382.428466796875	214.5676727294922	907.0849609375	1316.477416992188	279.535888671875	921.6875610351562	1046.529541015625	306.1654663085938	878.8715209960938	1040.687377929688	221.6766204833984	1024.6298828125	816.3360595703125	256.6675720214844	992.949462890625	805.0418701171875	325.6684875488281	947.2831420898438	980.431884765625	314.3682556152344	1025.596435546875	641.3796997070312	270.5469360351562	1044.554443359375	712.5250854492188	270.7694396972656	1001.071411132812	720.8084106445312	324.6898193359375	867.6800537109375	1593.603881835938	129.8828277587891	1029.917602539062	1625.097412109375	2.558954000473022	1025.03173828125	1625.183837890625	103.5663757324219	848.0655517578125	1585.318115234375	-13.48851299285889	897.54052734375	917.6017456054688	-103.0432510375977	1031.392944335938	945.7272338867188	183.2012939453125	1024.833862304688	945.4141845703125	-57.54291534423828	935.7460327148438	458.7445678710938	-95.73486328125	938.7426147460938	599.9136352539062	-106.4393539428711	860.4124755859375	40.10418701171875	-75.17584228515625	896.3800048828125	243.2256927490234	-98.86953735351562	1072.330932617188	33.06170654296875	-37.50876617431641	1007.814697265625	22.73927688598633	10.08363056182861	984.3756103515625	32.81197357177734	-100.7849578857422	834.2776489257812	36.20947647094727	-5.059803009033203	936.3970947265625	453.3835144042969	199.7737121582031	874.2494506835938	41.48989868164062	162.8369293212891	937.8011474609375	335.8750305175781	188.1908264160156	1065.838012695312	34.80352401733398	103.9331130981445	1008.268859863281	30.12491035461426	64.26076507568359	974.3895263671875	28.60194206237793	177.2874755859375	822.5293579101562	44.06439208984375	115.9082946777344	841.0032348632812	972.0462036132812	138.6740417480469	991.626953125	710.322998046875	229.8261108398438	931.5584106445312	915.4874267578125	236.4509887695312	1080.531005859375	756.9591064453125	-137.5273895263672	1090.27685546875	676.2356567382812	-113.4130249023438	nan	nan	nan	nan	nan	nan	nan	nan	nan	nan	nan	nan	
471	4.7	825.8440551757812	974.1787109375	10.11878681182861	830.6941528320312	1024.850708007812	79.62773895263672	1044.078369140625	1220.110229492188	45.30141448974609	807.5691528320312	1143.239013671875	75.93376922607422	834.7240600585938	1393.89208984375	56.57473754882812	993.708740234375	1342.506958007812	47.4831657409668	800.4688720703125	1253.672119140625	128.3480682373047	816.4379272460938	1355.90380859375	-43.44575500488281	895.8079223632812	1375.936401367188	-106.5257873535156	881.4431762695312	1254.744750976562	-173.0506896972656	921.9039306640625	1052.5439453125	-182.498779296875	858.2383422851562	1033.409545898438	-128.7866363525391	1055.166748046875	832.1671752929688	-125.4764633178711	1020.110961914062	810.8610229492188	-181.0708465576172	952.7138671875	950.80517578125	-185.4107818603516	1030.845581054688	741.759521484375	-171.9652404785156	909.4749755859375	1382.576782226562	213.9249725341797	907.5590209960938	1316.8779296875	279.0073852539062	921.2611694335938	1047.057006835938	306.3977661132812	877.9642944335938	1041.10595703125	221.9003753662109	1023.046325683594	816.2435913085938	257.0357055664062	991.4947509765625	805.1757202148438	326.1358642578125	946.6300659179688	980.7613525390625	314.7360229492188	1023.551147460938	641.3236694335938	271.406494140625	1042.677001953125	712.3773803710938	271.3032836914062	999.2957153320312	720.919921875	325.2873229980469	868.2770385742188	1593.525634765625	129.3246917724609	1030.60546875	1625.26904296875	2.2255699634552	1025.66015625	1625.3046875	103.2179641723633	848.8282470703125	1585.360595703125	-14.0544376373291	898.4910278320312	917.5692138671875	-103.630615234375	1031.291748046875	945.5548706054688	183.1414642333984	1025.589477539062	945.1912231445312	-57.6251106262207	936.0382690429688	458.7144775390625	-95.98983001708984	939.295166015625	599.8597412109375	-106.8191070556641	860.39697265625	40.09224319458008	-75.19153594970703	896.5458984375	243.1479034423828	-98.97902679443359	1072.324340820312	33.06559753417969	-37.4899787902832	1007.8115234375	22.7242317199707	10.09362506866455	984.37451171875	32.81826782226562	-100.758415222168	834.285888671875	36.19511032104492	-5.075785160064697	936.1824340820312	453.33154296875	199.5893249511719	874.2442016601562	41.58932495117188	162.6697998046875	937.6642456054688	335.8193054199219	187.9531707763672	1065.887939453125	34.76141738891602	103.8960952758789	1008.288513183594	30.0612621307373	64.19585418701172	974.3980712890625	28.62140655517578	177.2345733642578	822.535888671875	44.039306640625	115.7021026611328	841.1325073242188	972.1281127929688	137.9016265869141	991.373046875	710.2117309570312	229.709716796875	931.2777099609375	915.4630737304688	235.8948822021484	1082.310791015625	757.136474609375	-137.2573089599609	1092.079345703125	676.431640625	-113.0810394287109	nan	nan	nan	nan	nan	nan	nan	nan	nan	nan	nan	nan	
472	4.71	826.4989013671875	974.2861938476562	9.300064086914062	831.1920166015625	1024.935791015625	78.85093688964844	1044.81201171875	1219.987060546875	45.11680221557617	808.2675170898438	1143.352172851562	75.13655090332031	835.5558471679688	1393.925415039062	55.81177520751953	994.55712890625	1342.460327148438	47.06476974487305	801.1862182617188	1253.781372070312	127.4979248046875	817.4713134765625	1355.906860351562	-44.2655143737793	896.9857788085938	1375.901000976562	-107.1651382446289	882.8041381835938	1254.682006835938	-173.6765289306641	923.449951171875	1052.514282226562	-182.9889984130859	859.62158203125	1033.33154296875	-129.4706573486328	1056.62353515625	832.209228515625	-125.4240570068359	1021.77880859375	810.891357421875	-181.1337585449219	954.328125	950.7891845703125	-185.7560882568359	1032.525024414062	741.79931640625	-171.9849700927734	910.031982421875	1382.731079101562	213.2921295166016	907.9404907226562	1317.2744140625	278.478759765625	920.8281860351562	1047.579956054688	306.6745910644531	877.0781860351562	1041.518432617188	222.1741333007812	1021.622619628906	816.2523193359375	257.3920288085938	990.243408203125	805.3511962890625	326.5896911621094	946.0513305664062	981.112060546875	315.14306640625	1021.907958984375	641.3942260742188	272.2079467773438	1041.111450195312	712.3739624023438	271.783935546875	997.83642578125	721.1062622070312	325.8452453613281	868.8592529296875	1593.452270507812	128.7626495361328	1031.291259765625	1625.431762695312	1.90296471118927	1026.26953125	1625.423706054688	102.8905792236328	849.5944213867188	1585.4013671875	-14.62798023223877	899.512451171875	917.5289306640625	-104.1802673339844	1031.185180664062	945.4047241210938	183.0874481201172	1026.368774414062	944.9987182617188	-57.73579406738281	936.2843627929688	458.6619262695312	-96.22591400146484	939.8131713867188	599.7968139648438	-107.1444778442383	860.379638671875	40.07769393920898	-75.20889282226562	896.689453125	243.0799713134766	-99.09232330322266	1072.315185546875	33.07072830200195	-37.47346496582031	1007.806335449219	22.71155166625977	10.10367584228516	984.372802734375	32.82697677612305	-100.7331924438477	834.2932739257812	36.18021774291992	-5.092265605926514	935.93994140625	453.28271484375	199.4395904541016	874.2301025390625	41.67578506469727	162.5201568603516	937.5306396484375	335.7584228515625	187.740966796875	1065.930297851562	34.72747039794922	103.8688812255859	1008.305358886719	30.0118522644043	64.13711547851562	974.40185546875	28.63928985595703	177.1889343261719	822.5170288085938	44.0265007019043	115.5087890625	841.2800903320312	972.200439453125	137.1347961425781	991.1541748046875	710.0679931640625	229.5543518066406	931.027099609375	915.4537353515625	235.3599853515625	1083.864501953125	757.1857299804688	-137.0877685546875	1093.61865234375	676.4705200195312	-112.8528518676758	nan	nan	nan	nan	nan	nan	nan	nan	nan	nan	nan	nan	
473	4.72	827.1497802734375	974.373291015625	8.5015869140625	831.6607666015625	1024.998291015625	78.07749938964844	1045.521240234375	1219.858154296875	44.96353530883789	809.00341796875	1143.457763671875	74.34726715087891	836.3795166015625	1393.949096679688	55.02965545654297	995.3796997070312	1342.41748046875	46.6616325378418	801.8740234375	1253.877319335938	126.6373596191406	818.5109252929688	1355.899169921875	-45.11209869384766	898.1845092773438	1375.852905273438	-107.8080825805664	884.1854858398438	1254.592407226562	-174.2972259521484	924.95703125	1052.448364257812	-183.4708251953125	860.968994140625	1033.245483398438	-130.1338043212891	1057.9169921875	832.1149291992188	-125.441780090332	1023.236206054688	810.8237915039062	-181.2585144042969	955.84326171875	950.729736328125	-186.1143341064453	1033.949951171875	741.7366943359375	-172.0634002685547	910.52392578125	1382.89794921875	212.6739196777344	908.2283325195312	1317.657104492188	277.9501647949219	920.3756713867188	1048.085205078125	306.9711303710938	876.2391967773438	1041.919921875	222.4869995117188	1020.3623046875	816.3466796875	257.7439575195312	989.181884765625	805.5640869140625	327.0272521972656	945.5252075195312	981.4852905273438	315.5609436035156	1020.639343261719	641.5819702148438	272.9328002929688	1039.841796875	712.5119018554688	272.2167663574219	996.6701049804688	721.3497924804688	326.3638305664062	869.4263916015625	1593.385620117188	128.1960754394531	1031.980102539062	1625.584228515625	1.585103988647461	1026.860107421875	1625.537231445312	102.5819244384766	850.3612060546875	1585.441528320312	-15.20629978179932	900.57080078125	917.4844360351562	-104.6936721801758	1031.08349609375	945.281494140625	183.0278015136719	1027.16259765625	944.8486938476562	-57.87850189208984	936.4834594726562	458.5891418457031	-96.43417358398438	940.279296875	599.7184448242188	-107.413330078125	860.3623657226562	40.06138229370117	-75.22525787353516	896.8095092773438	243.0237274169922	-99.20463562011719	1072.303833007812	33.07622146606445	-37.45903778076172	1007.800170898438	22.70073127746582	10.11531829833984	984.371826171875	32.83785629272461	-100.7096633911133	834.29931640625	36.16610717773438	-5.105678558349609	935.6825561523438	453.2361755371094	199.3121643066406	874.2096557617188	41.74676513671875	162.390625	937.4027099609375	335.7018127441406	187.5564575195312	1065.963134765625	34.70234680175781	103.8511505126953	1008.318054199219	29.97504615783691	64.08895874023438	974.4027709960938	28.65606880187988	177.153564453125	822.469482421875	44.02645492553711	115.3322143554688	841.46044921875	972.2640991210938	136.3749847412109	990.9864501953125	709.902099609375	229.3517303466797	930.8164672851562	915.4612426757812	234.85888671875	1085.189819335938	757.095458984375	-137.0054321289062	1094.898803710938	676.3743896484375	-112.7332000732422	nan	nan	nan	nan	nan	nan	nan	nan	nan	nan	nan	nan	
